<svg xmlns="http://www.w3.org/2000/svg" xmlns:xlink="http://www.w3.org/1999/xlink" viewBox="0,0,256,256" width="96px" height="96px" fill-rule="nonzero"><defs><linearGradient x1="14.572" y1="38.199" x2="43.188" y2="9.583" gradientUnits="userSpaceOnUse" id="color-1"><stop offset="0" stop-color="#4191fd"></stop><stop offset="1" stop-color="#55acfd"></stop></linearGradient></defs><g transform=""><g fill="none" fill-rule="nonzero" stroke="#1786a4" stroke-width="10.66667" stroke-linecap="butt" stroke-linejoin="miter" stroke-miterlimit="10" stroke-dasharray="" stroke-dashoffset="0" font-family="none" font-weight="none" font-size="none" text-anchor="none" style="mix-blend-mode: normal"><path d="M67.40828,249.18343c-33.46388,0 -60.59172,-27.12784 -60.59172,-60.59172v-121.18343c0,-33.46388 27.12784,-60.59172 60.59172,-60.59172h121.18343c33.46388,0 60.59172,27.12784 60.59172,60.59172v121.18343c0,33.46388 -27.12784,60.59172 -60.59172,60.59172z" id="shape"></path></g><g fill="none" fill-rule="nonzero" stroke="none" stroke-width="1" stroke-linecap="butt" stroke-linejoin="miter" stroke-miterlimit="10" stroke-dasharray="" stroke-dashoffset="0" font-family="none" font-weight="none" font-size="none" text-anchor="none" style="mix-blend-mode: normal"><g transform="translate(4.02684,-9.78656) scale(5.33333,5.33333)"><path d="M24.48,29.316l-9.505,9.505l-13.387,-13.387c-0.784,-0.784 -0.784,-2.054 0,-2.838l6.667,-6.667c0.784,-0.784 2.054,-0.784 2.838,0z" fill="#185abd"></path><path d="M17.797,41.642l-6.667,-6.667c-0.784,-0.784 -0.784,-2.054 0,-2.838l25.777,-25.779c0.784,-0.784 2.054,-0.784 2.838,0l6.667,6.667c0.784,0.784 0.784,2.054 0,2.838l-25.778,25.779c-0.783,0.783 -2.054,0.783 -2.837,0z" fill="url(#color-1)"></path></g></g><g fill="#3db9f4" fill-rule="nonzero" stroke="none" stroke-width="1" stroke-linecap="butt" stroke-linejoin="miter" stroke-miterlimit="10" stroke-dasharray="" stroke-dashoffset="0" font-family="none" font-weight="none" font-size="none" text-anchor="none" style="mix-blend-mode: normal"><g><path d="M193.515,222.965h-9.39v-30.34h9.33c2.66667,0 5.05333,0.60333 7.16,1.81c2.1,1.2 3.74333,2.90667 4.93,5.12c1.18,2.21333 1.77,4.73 1.77,7.55v0v1.4c0,2.82 -0.58,5.32667 -1.74,7.52c-1.16,2.19333 -2.79667,3.89333 -4.91,5.1c-2.11333,1.21333 -4.49667,1.82667 -7.15,1.84zM193.455,197.695h-3.08v20.25h3.02c2.44667,0 4.31333,-0.8 5.6,-2.4c1.29333,-1.6 1.95333,-3.88333 1.98,-6.85v0v-1.61c0,-3.08 -0.63667,-5.41667 -1.91,-7.01c-1.28,-1.58667 -3.15,-2.38 -5.61,-2.38zM210.515,211.755v-0.27c0,-2.24 0.43333,-4.23333 1.3,-5.98c0.86,-1.75333 2.09667,-3.10667 3.71,-4.06c1.62,-0.96 3.5,-1.44 5.64,-1.44v0c3.04,0 5.52333,0.93 7.45,2.79c1.92,1.86 2.99333,4.38667 3.22,7.58v0l0.04,1.55c0,3.45333 -0.96667,6.22667 -2.9,8.32c-1.92667,2.08667 -4.51667,3.13 -7.77,3.13c-3.24667,0 -5.84,-1.04 -7.78,-3.12c-1.94,-2.08667 -2.91,-4.92 -2.91,-8.5zM216.545,211.925v0c0,2.13333 0.4,3.76667 1.2,4.9c0.80667,1.13333 1.96,1.7 3.46,1.7v0c1.46,0 2.6,-0.56 3.42,-1.68c0.82,-1.11333 1.23,-2.9 1.23,-5.36v0c0,-2.1 -0.41,-3.72667 -1.23,-4.88c-0.82,-1.15333 -1.97333,-1.73 -3.46,-1.73v0c-1.47333,0 -2.61333,0.57333 -3.42,1.72c-0.8,1.14667 -1.2,2.92333 -1.2,5.33z"></path></g></g></g></svg>